[Header]
FileType HTR
DataType HTRS
FileVersion 1
NumSegments 64
NumFrames 4
DataFrameRate 30
EulerRotationOrder ZYX
CalibrationUnits mm
RotationUnits Degrees
GlobalAxisofGravity Y
BoneLengthAxis Y
ScaleFactor 1.0
[SegmentNames&Hierarchy]
Hips	GLOBAL
Spine	Hips
Spine1	Spine
Spine2	Spine1
Neck	Spine2
Head	Neck
LeftEye	Head
RightEye	Head
LeftShoulder	Spine2
LeftArm	LeftShoulder
LeftForeArm	LeftArm
LeftHand	LeftForeArm
LeftHandThumb1	LeftHand
LeftHandThumb2	LeftHandThumb1
LeftHandThumb3	LeftHandThumb2
LeftHandThumb4	LeftHandThumb3
LeftHandIndex1	LeftHand
LeftHandIndex2	LeftHandIndex1
LeftHandIndex3	LeftHandIndex2
LeftHandIndex4	LeftHandIndex3
LeftHandMiddle1	LeftHand
LeftHandMiddle2	LeftHandMiddle1
LeftHandMiddle3	LeftHandMiddle2
LeftHandMiddle4	LeftHandMiddle3
LeftHandRing1	LeftHand
LeftHandRing2	LeftHandRing1
LeftHandRing3	LeftHandRing2
LeftHandRing4	LeftHandRing3
LeftHandPinky1	LeftHand
LeftHandPinky2	LeftHandPinky1
LeftHandPinky3	LeftHandPinky2
LeftHandPinky4	LeftHandPinky3
RightShoulder	Spine2
RightArm	RightShoulder
RightForeArm	RightArm
RightHand	RightForeArm
RightHandPinky1	RightHand
RightHandPinky2	RightHandPinky1
RightHandPinky3	RightHandPinky2
RightHandPinky4	RightHandPinky3
RightHandRing1	RightHand
RightHandRing2	RightHandRing1
RightHandRing3	RightHandRing2
RightHandRing4	RightHandRing3
RightHandMiddle1	RightHand
RightHandMiddle2	RightHandMiddle1
RightHandMiddle3	RightHandMiddle2
RightHandMiddle4	RightHandMiddle3
RightHandIndex1	RightHand
RightHandIndex2	RightHandIndex1
RightHandIndex3	RightHandIndex2
RightHandIndex4	RightHandIndex3
RightHandThumb1	RightHand
RightHandThumb2	RightHandThumb1
RightHandThumb3	RightHandThumb2
RightHandThumb4	RightHandThumb3
LeftUpLeg	Hips
LeftLeg	LeftUpLeg
LeftFoot	LeftLeg
LeftToeBase	LeftFoot
RightUpLeg	Hips
RightLeg	RightUpLeg
RightFoot	RightLeg
RightToeBase	RightFoot
[BasePosition]
Hips	0	0	0	0	0	0	1
Spine	0	0	0	0	0	0	1
Spine1	0	0	0	0	0	0	1
Spine2	0	0	0	0	0	0	1
Neck	0	0	0	0	0	0	1
Head	0	0	0	0	0	0	1
LeftEye	0	0	0	0	0	0	1
RightEye	0	0	0	0	0	0	1
LeftShoulder	0	0	0	0	0	0	1
LeftArm	0	0	0	0	0	0	1
LeftForeArm	0	0	0	0	0	0	1
LeftHand	0	0	0	0	0	0	1
LeftHandThumb1	0	0	0	0	0	0	1
LeftHandThumb2	0	0	0	0	0	0	1
LeftHandThumb3	0	0	0	0	0	0	1
LeftHandThumb4	0	0	0	0	0	0	1
LeftHandIndex1	0	0	0	0	0	0	1
LeftHandIndex2	0	0	0	0	0	0	1
LeftHandIndex3	0	0	0	0	0	0	1
LeftHandIndex4	0	0	0	0	0	0	1
LeftHandMiddle1	0	0	0	0	0	0	1
LeftHandMiddle2	0	0	0	0	0	0	1
LeftHandMiddle3	0	0	0	0	0	0	1
LeftHandMiddle4	0	0	0	0	0	0	1
LeftHandRing1	0	0	0	0	0	0	1
LeftHandRing2	0	0	0	0	0	0	1
LeftHandRing3	0	0	0	0	0	0	1
LeftHandRing4	0	0	0	0	0	0	1
LeftHandPinky1	0	0	0	0	0	0	1
LeftHandPinky2	0	0	0	0	0	0	1
LeftHandPinky3	0	0	0	0	0	0	1
LeftHandPinky4	0	0	0	0	0	0	1
RightShoulder	0	0	0	0	0	0	1
RightArm	0	0	0	0	0	0	1
RightForeArm	0	0	0	0	0	0	1
RightHand	0	0	0	0	0	0	1
RightHandPinky1	0	0	0	0	0	0	1
RightHandPinky2	0	0	0	0	0	0	1
RightHandPinky3	0	0	0	0	0	0	1
RightHandPinky4	0	0	0	0	0	0	1
RightHandRing1	0	0	0	0	0	0	1
RightHandRing2	0	0	0	0	0	0	1
RightHandRing3	0	0	0	0	0	0	1
RightHandRing4	0	0	0	0	0	0	1
RightHandMiddle1	0	0	0	0	0	0	1
RightHandMiddle2	0	0	0	0	0	0	1
RightHandMiddle3	0	0	0	0	0	0	1
RightHandMiddle4	0	0	0	0	0	0	1
RightHandIndex1	0	0	0	0	0	0	1
RightHandIndex2	0	0	0	0	0	0	1
RightHandIndex3	0	0	0	0	0	0	1
RightHandIndex4	0	0	0	0	0	0	1
RightHandThumb1	0	0	0	0	0	0	1
RightHandThumb2	0	0	0	0	0	0	1
RightHandThumb3	0	0	0	0	0	0	1
RightHandThumb4	0	0	0	0	0	0	1
LeftUpLeg	0	0	0	0	0	0	1
LeftLeg	0	0	0	0	0	0	1
LeftFoot	0	0	0	0	0	0	1
LeftToeBase	0	0	0	0	0	0	1
RightUpLeg	0	0	0	0	0	0	1
RightLeg	0	0	0	0	0	0	1
RightFoot	0	0	0	0	0	0	1
RightToeBase	0	0	0	0	0	0	1
[Hips]
302	891.7485352	1016.133728	111.7698517	1.359573364	10.47352505	5.411624432	1.0
303	874.5264893	1024.696411	110.7410049	3.414415121	7.807681084	3.247358322	1.0
304	858.6077271	1022.527527	111.2285461	5.593560696	5.090964317	1.415200233	1.0
305	841.6656494	1011	111.9676361	7.128046513	2.719884872	0.8212470412	1.0
[Spine]
302	0	101.8159943	1.315000057	6.92847538	-1.085059524	7.407867908	1.0
303	0	101.8159943	1.315000057	5.873200893	-1.589352012	10.05835819	1.0
304	0	101.8159943	1.315000057	4.69149828	-2.908360004	12.61374855	1.0
305	0	101.8159943	1.315000057	3.765569925	-4.514002323	13.98428917	1.0
[Spine1]
302	0	100.8349991	-10.00800037	3.528671026	-0.0885277167	1.373193741	1.0
303	0	100.8349991	-10.00800037	2.920113564	-0.2692908049	1.011934876	1.0
304	0	100.8349991	-10.00800037	2.124685764	-0.5309057236	1.033760309	1.0
305	0	100.8349991	-10.00800037	1.523111224	-0.7765853405	1.338794351	1.0
[Spine2]
302	0	91	-13.73399925	3.513199806	-0.02577139437	1.370868802	1.0
303	0	91	-13.73399925	2.898345232	-0.261923641	1.012009501	1.0
304	0	91	-13.73399925	2.095058441	-0.5501921177	1.034461141	1.0
305	0	91	-13.73399925	1.488343358	-0.8011004925	1.33800447	1.0
[Neck]
302	0	166.7169952	-25.16200066	-0.5985416174	3.175943613	7.141880512	1.0
303	0	166.7169952	-25.16200066	-1.270546675	3.523692369	9.20635128	1.0
304	0	166.7169952	-25.16200066	-1.594802618	4.218503952	10.59095955	1.0
305	0	166.7169952	-25.16200066	-1.519974589	4.981052876	11.27177525	1.0
[Head]
302	0	96.17900085	16.84999847	-30.11149216	29.46557808	-11.84009838	1.0
303	0	96.17900085	16.84999847	-29.56020927	32.80017471	-12.60672474	1.0
304	0	96.17900085	16.84999847	-29.45034409	36.7552948	-15.14133453	1.0
305	0	96.17900085	16.84999847	-30.4016819	40.18753052	-19.19457054	1.0
[LeftEye]
302	30.6760006	64.09500122	92.83599854	0	0	0	1.0
303	30.6760006	64.09500122	92.83599854	0	0	0	1.0
304	30.6760006	64.09500122	92.83599854	0	0	0	1.0
305	30.6760006	64.09500122	92.83599854	0	0	0	1.0
[RightEye]
302	-30.6760006	64.09500122	92.83499908	0	0	0	1.0
303	-30.6760006	64.09500122	92.83499908	0	0	0	1.0
304	-30.6760006	64.09500122	92.83499908	0	0	0	1.0
305	-30.6760006	64.09500122	92.83499908	0	0	0	1.0
[LeftShoulder]
302	45.70400238	109.4599991	-26.28000069	3.872040272	-19.55815506	-4.865194798	1.0
303	45.70400238	109.4599991	-26.28000069	3.69914794	-18.63434029	-3.924690962	1.0
304	45.70400238	109.4599991	-26.28000069	3.624569178	-15.63558197	-2.755443573	1.0
305	45.70400238	109.4599991	-26.28000069	3.629888296	-11.49430466	-0.4812279046	1.0
[LeftArm]
302	105.923996	-5.24600029	-22.32099915	34.10664368	35.00416565	-52.29078293	1.0
303	105.923996	-5.24600029	-22.32099915	28.20408821	35.7471962	-57.69571686	1.0
304	105.923996	-5.24600029	-22.32099915	25.19441223	34.51691818	-62.3270874	1.0
305	105.923996	-5.24600029	-22.32099915	25.51820183	31.49977493	-66.32481384	1.0
[LeftForeArm]
302	278.414978	-0.0009999999311	0	-1.621803858e-05	-84.27723694	-0.0001859913755	1.0
303	278.414978	-0.0009999999311	0	1.384735606e-05	-81.30838776	-0.0002062126587	1.0
304	278.414978	-0.0009999999311	0	9.91530942e-06	-77.41307831	-0.000214756481	1.0
305	278.414978	-0.0009999999311	0	-2.617059545e-05	-73.14551544	-0.0001914466993	1.0
[LeftHand]
302	283.2879944	0	0	45.83890533	-40.11698914	-35.81568527	1.0
303	283.2879944	0	0	50.06100845	-39.55595779	-43.90319824	1.0
304	283.2879944	0	0	53.06118393	-39.64512634	-50.29359818	1.0
305	283.2879944	0	0	54.7493248	-40.40389633	-53.77425385	1.0
[LeftHandThumb1]
302	24.6609993	-15.75	26.8239994	-1.44146049	-8.319261551	8.653966904	1.0
303	24.6609993	-15.75	26.8239994	-1.441464424	-8.319263458	8.653969765	1.0
304	24.6609993	-15.75	26.8239994	-1.44146502	-8.319263458	8.653966904	1.0
305	24.6609993	-15.75	26.8239994	-1.441467643	-8.319263458	8.653962135	1.0
[LeftHandThumb2]
302	32.29800034	-18.64699936	18.64699936	-0.9986064434	48.03616333	-30.10180855	1.0
303	32.29800034	-18.64699936	18.64699936	-0.9986006618	48.03616714	-30.10181618	1.0
304	32.29800034	-18.64699936	18.64699936	-0.9986061454	48.03616714	-30.1018219	1.0
305	32.29800034	-18.64699936	18.64699936	-0.9986199141	48.03615952	-30.10181808	1.0
[LeftHandThumb3]
302	26.52600098	-15.31499958	15.31499958	7.522158146	50.02409363	24.38756752	1.0
303	26.52600098	-15.31499958	15.31499958	7.522148132	50.02410126	24.38756561	1.0
304	26.52600098	-15.31499958	15.31499958	7.522155285	50.02408981	24.38755608	1.0
305	26.52600098	-15.31499958	15.31499958	7.522168159	50.02407074	24.38754654	1.0
[LeftHandThumb4]
302	19.54599953	-11.28499985	11.28499985	0	0	0	1.0
303	19.54599953	-11.28499985	11.28499985	0	0	0	1.0
304	19.54599953	-11.28499985	11.28499985	0	0	0	1.0
305	19.54599953	-11.28499985	11.28499985	0	0	0	1.0
[LeftHandIndex1]
302	91.09299469	-5.170999527	22.60099792	-1.706936121	9.272185326	-79.12527466	1.0
303	91.09299469	-5.170999527	22.60099792	-1.706923723	9.272166252	-79.12528992	1.0
304	91.09299469	-5.170999527	22.60099792	-1.706927419	9.272161484	-79.12529755	1.0
305	91.09299469	-5.170999527	22.60099792	-1.706944823	9.272172928	-79.12528992	1.0
[LeftHandIndex2]
302	36.76399994	0	0	-5.084227085	5.778064728	-82.67962646	1.0
303	36.76399994	0	0	-5.084237576	5.778054237	-82.67962646	1.0
304	36.76399994	0	0	-5.084240913	5.778048038	-82.67962646	1.0
305	36.76399994	0	0	-5.084229469	5.778056145	-82.67963409	1.0
[LeftHandIndex3]
302	28.83100128	0	0	-6.449674129	5.791752338	-96.16448975	1.0
303	28.83100128	0	0	-6.449669838	5.791767597	-96.16448212	1.0
304	28.83100128	0	0	-6.449671745	5.791774273	-96.16448212	1.0
305	28.83100128	0	0	-6.449674129	5.791766167	-96.16448975	1.0
[LeftHandIndex4]
302	23.92700005	0	0	0	0	0	1.0
303	23.92700005	0	0	0	0	0	1.0
304	23.92700005	0	0	0	0	0	1.0
305	23.92700005	0	0	0	0	0	1.0
[LeftHandMiddle1]
302	95.33399963	0	0	-6.49476099	5.273260117	-74.30393982	1.0
303	95.33399963	0	0	-6.494758129	5.273251534	-74.30395508	1.0
304	95.33399963	0	0	-6.494757175	5.273250103	-74.30395508	1.0
305	95.33399963	0	0	-6.494763374	5.273248196	-74.30394745	1.0
[LeftHandMiddle2]
302	36.98199844	0	0	-7.583493233	5.554392338	-107.5965958	1.0
303	36.98199844	0	0	-7.583480835	5.554391384	-107.5965958	1.0
304	36.98199844	0	0	-7.583480358	5.554389954	-107.5965958	1.0
305	36.98199844	0	0	-7.583500385	5.554389954	-107.5966034	1.0
[LeftHandMiddle3]
302	29.50900078	0	0	-4.044076443	5.54712677	-72.16720581	1.0
303	29.50900078	0	0	-4.044073582	5.547122955	-72.16722107	1.0
304	29.50900078	0	0	-4.044073582	5.547123432	-72.16722107	1.0
305	29.50900078	0	0	-4.044071198	5.547130585	-72.16721344	1.0
[LeftHandMiddle4]
302	28.3390007	0	0	0	0	0	1.0
303	28.3390007	0	0	0	0	0	1.0
304	28.3390007	0	0	0	0	0	1.0
305	28.3390007	0	0	0	0	0	1.0
[LeftHandRing1]
302	91.04499817	-0.4390000105	-18.65100098	-7.093583107	2.507966757	-79.76667786	1.0
303	91.04499817	-0.4390000105	-18.65100098	-7.093585968	2.507949352	-79.76668549	1.0
304	91.04499817	-0.4390000105	-18.65100098	-7.093597412	2.507935524	-79.76668549	1.0
305	91.04499817	-0.4390000105	-18.65100098	-7.093606472	2.507935047	-79.76667786	1.0
[LeftHandRing2]
302	31.54000092	0	0	-6.249151707	5.809815884	-94.18068695	1.0
303	31.54000092	0	0	-6.249145031	5.809812546	-94.18068695	1.0
304	31.54000092	0	0	-6.249152184	5.809815407	-94.18068695	1.0
305	31.54000092	0	0	-6.249163151	5.809826851	-94.18069458	1.0
[LeftHandRing3]
302	29.37700081	0	0	-2.898625135	5.038872242	-59.79807281	1.0
303	29.37700081	0	0	-2.898616314	5.038881779	-59.79806519	1.0
304	29.37700081	0	0	-2.898603439	5.038887024	-59.79807663	1.0
305	29.37700081	0	0	-2.898601055	5.038881302	-59.79808426	1.0
[LeftHandRing4]
302	26.47500038	0	0	0	0	0	1.0
303	26.47500038	0	0	0	0	0	1.0
304	26.47500038	0	0	0	0	0	1.0
305	26.47500038	0	0	0	0	0	1.0
[LeftHandPinky1]
302	80.77799988	-4.887000084	-38.06099701	-15.74281979	5.236330986	-84.96305084	1.0
303	80.77799988	-4.887000084	-38.06099701	-15.74281693	5.236312866	-84.96304321	1.0
304	80.77799988	-4.887000084	-38.06099701	-15.74281502	5.236306667	-84.96305084	1.0
305	80.77799988	-4.887000084	-38.06099701	-15.74281597	5.236317158	-84.9630661	1.0
[LeftHandPinky2]
302	36	0	0	-2.465517759	4.761461258	-54.73119736	1.0
303	36	0	0	-2.465520382	4.761482716	-54.73119354	1.0
304	36	0	0	-2.465516329	4.761480808	-54.73119736	1.0
305	36	0	0	-2.465511799	4.761459351	-54.73120499	1.0
[LeftHandPinky3]
302	21.14200211	0	0	-4.929654598	5.756206512	-81.14134216	1.0
303	21.14200211	0	0	-4.929653645	5.756189346	-81.14135742	1.0
304	21.14200211	0	0	-4.929648876	5.756181717	-81.14135742	1.0
305	21.14200211	0	0	-4.929647923	5.756195068	-81.14134216	1.0
[LeftHandPinky4]
302	19.75699997	0	0	0	0	0	1.0
303	19.75699997	0	0	0	0	0	1.0
304	19.75699997	0	0	0	0	0	1.0
305	19.75699997	0	0	0	0	0	1.0
[RightShoulder]
302	-45.70000076	109.4620056	-26.28000069	2.238797903	3.85624218	-3.401694059	1.0
303	-45.70000076	109.4620056	-26.28000069	2.633908033	1.454131007	0.3619571626	1.0
304	-45.70000076	109.4620056	-26.28000069	2.880722761	-0.1157648265	2.855958223	1.0
305	-45.70000076	109.4620056	-26.28000069	2.875235081	-0.6034726501	2.423353195	1.0
[RightArm]
302	-105.9280014	-5.248000145	-22.32099915	58.02090454	-21.37166595	41.36000061	1.0
303	-105.9280014	-5.248000145	-22.32099915	63.07382965	-17.11515999	32.95100784	1.0
304	-105.9280014	-5.248000145	-22.32099915	66.82215118	-12.80025959	25.74945641	1.0
305	-105.9280014	-5.248000145	-22.32099915	68.38642883	-9.801184654	23.43593788	1.0
[RightForeArm]
302	-278.414978	0	0	-0.00016345529	92.82575226	-0.0002835764608	1.0
303	-278.414978	0	0	-8.78911851e-06	97.70723724	5.736890671e-06	1.0
304	-278.414978	0	0	3.442408342e-05	102.4689026	3.088396261e-05	1.0
305	-278.414978	0	0	4.846190495e-05	104.8824081	3.320311589e-05	1.0
[RightHand]
302	-283.2879944	0	0.0009999999311	30.30873871	28.91581154	19.78627205	1.0
303	-283.2879944	0	0.0009999999311	24.72929192	25.11138725	15.78519821	1.0
304	-283.2879944	0	0.0009999999311	19.59827042	20.95020676	13.36132717	1.0
305	-283.2879944	0	0.0009999999311	16.70199203	18.09326363	13.20276165	1.0
[RightHandPinky1]
302	-80.76699829	-4.885000229	-38.06000137	-14.51716995	-4.048318386	84.21438599	1.0
303	-80.76699829	-4.885000229	-38.06000137	-14.51716995	-4.048331738	84.21438599	1.0
304	-80.76699829	-4.885000229	-38.06000137	-14.51717377	-4.048332214	84.21437836	1.0
305	-80.76699829	-4.885000229	-38.06000137	-14.51717663	-4.048325539	84.2143631	1.0
[RightHandPinky2]
302	-36	0	0.0009999999311	-1.960809946	-3.784808636	54.78261185	1.0
303	-36	0	0.0009999999311	-1.960825682	-3.784810781	54.78261185	1.0
304	-36	0	0.0009999999311	-1.960836649	-3.784820557	54.78263474	1.0
305	-36	0	0.0009999999311	-1.960833788	-3.784827948	54.78264236	1.0
[RightHandPinky3]
302	-21.14200211	0	0	-3.919520855	-4.575729847	81.15794373	1.0
303	-21.14200211	0	0	-3.919518948	-4.575730801	81.15796661	1.0
304	-21.14200211	0	0	-3.919512033	-4.575722694	81.15797424	1.0
305	-21.14200211	0	0	-3.919510365	-4.575716972	81.15796661	1.0
[RightHandPinky4]
302	-19.75699997	0	0	0	0	0	1.0
303	-19.75699997	0	0	0	0	0	1.0
304	-19.75699997	0	0	0	0	0	1.0
305	-19.75699997	0	0	0	0	0	1.0
[RightHandRing1]
302	-91.03599548	-0.4390000105	-18.65100098	-5.975869179	-1.320502639	79.02267456	1.0
303	-91.03599548	-0.4390000105	-18.65100098	-5.975875378	-1.320498824	79.02267456	1.0
304	-91.03599548	-0.4390000105	-18.65100098	-5.97587204	-1.320500612	79.02267456	1.0
305	-91.03599548	-0.4390000105	-18.65100098	-5.975867748	-1.320508003	79.02267456	1.0
[RightHandRing2]
302	-31.54000092	0	0	-4.967086792	-4.618296623	94.17273712	1.0
303	-31.54000092	0	0	-4.967101574	-4.618304253	94.17275238	1.0
304	-31.54000092	0	0	-4.967102051	-4.618306637	94.17275238	1.0
305	-31.54000092	0	0	-4.967089653	-4.618299961	94.17275238	1.0
[RightHandRing3]
302	-29.37700081	0	0	-2.306354523	-4.006097317	59.8455658	1.0
303	-29.37700081	0	0	-2.306348085	-4.006094456	59.84556961	1.0
304	-29.37700081	0	0	-2.306344986	-4.006091118	59.84556961	1.0
305	-29.37700081	0	0	-2.306349993	-4.006093025	59.84556961	1.0
[RightHandRing4]
302	-26.47500038	0	0	0	0	0	1.0
303	-26.47500038	0	0	0	0	0	1.0
304	-26.47500038	0	0	0	0	0	1.0
305	-26.47500038	0	0	0	0	0	1.0
[RightHandMiddle1]
302	-95.32500458	0	0	-5.490193367	-4.098502636	73.57289124	1.0
303	-95.32500458	0	0	-5.490182877	-4.09851265	73.57290649	1.0
304	-95.32500458	0	0	-5.490189075	-4.098507881	73.57290649	1.0
305	-95.32500458	0	0	-5.490203381	-4.098498821	73.57289124	1.0
[RightHandMiddle2]
302	-36.98199844	0	0	-6.026565075	-4.415487766	107.5651169	1.0
303	-36.98199844	0	0	-6.026571751	-4.415488243	107.5651169	1.0
304	-36.98199844	0	0	-6.026585579	-4.415496826	107.5651169	1.0
305	-36.98199844	0	0	-6.026584148	-4.415501595	107.5651245	1.0
[RightHandMiddle3]
302	-29.50900078	0	0	-3.216336727	-4.41174221	72.19917297	1.0
303	-29.50900078	0	0	-3.216330051	-4.411741734	72.19915771	1.0
304	-29.50900078	0	0	-3.216324329	-4.411742687	72.19915771	1.0
305	-29.50900078	0	0	-3.21632719	-4.41174078	72.1991806	1.0
[RightHandMiddle4]
302	-28.3390007	0	0.0009999999311	0	0	0	1.0
303	-28.3390007	0	0.0009999999311	0	0	0	1.0
304	-28.3390007	0	0.0009999999311	0	0	0	1.0
305	-28.3390007	0	0.0009999999311	0	0	0	1.0
[RightHandIndex1]
302	-91.08300018	-5.167999744	22.60099792	-0.6033739448	-8.085646629	78.39245605	1.0
303	-91.08300018	-5.167999744	22.60099792	-0.6033759713	-8.085643768	78.39244843	1.0
304	-91.08300018	-5.167999744	22.60099792	-0.6033754349	-8.085656166	78.39244843	1.0
305	-91.08300018	-5.167999744	22.60099792	-0.6033719182	-8.085670471	78.39246368	1.0
[RightHandIndex2]
302	-36.76399994	0	0	-4.042237759	-4.59308815	82.69345093	1.0
303	-36.76399994	0	0	-4.042253017	-4.593082428	82.69343567	1.0
304	-36.76399994	0	0	-4.042247772	-4.593069553	82.69342804	1.0
305	-36.76399994	0	0	-4.042232037	-4.593063354	82.6934433	1.0
[RightHandIndex3]
302	-28.83100128	0	0	-5.126286507	-4.603959084	96.15283203	1.0
303	-28.83100128	0	0	-5.126291275	-4.603960991	96.15283966	1.0
304	-28.83100128	0	0	-5.126286507	-4.603957176	96.15283966	1.0
305	-28.83100128	0	0	-5.126279831	-4.603953838	96.15283966	1.0
[RightHandIndex4]
302	-23.92700005	0	0	0	0	0	1.0
303	-23.92700005	0	0	0	0	0	1.0
304	-23.92700005	0	0	0	0	0	1.0
305	-23.92700005	0	0	0	0	0	1.0
[RightHandThumb1]
302	-24.64799881	-15.72700024	26.82600021	-2.388245821	10.16858387	-8.287028313	1.0
303	-24.64799881	-15.72700024	26.82600021	-2.388242245	10.16858482	-8.287029266	1.0
304	-24.64799881	-15.72700024	26.82600021	-2.388232708	10.16858673	-8.287029266	1.0
305	-24.64799881	-15.72700024	26.82600021	-2.388230324	10.16858959	-8.287031174	1.0
[RightHandThumb2]
302	-32.29800034	-18.64699936	18.64699936	-2.059265375	-49.39985657	30.22302246	1.0
303	-32.29800034	-18.64699936	18.64699936	-2.059259892	-49.39985657	30.22302246	1.0
304	-32.29800034	-18.64699936	18.64699936	-2.05928731	-49.39984512	30.223032	1.0
305	-32.29800034	-18.64699936	18.64699936	-2.059309721	-49.39984894	30.22304344	1.0
[RightHandThumb3]
302	-26.52600098	-15.31399918	15.31399918	13.49722862	-55.14929962	-27.72499084	1.0
303	-26.52600098	-15.31399918	15.31399918	13.49724388	-55.14929962	-27.72500801	1.0
304	-26.52600098	-15.31399918	15.31399918	13.49727345	-55.14929199	-27.72502136	1.0
305	-26.52600098	-15.31399918	15.31399918	13.49727917	-55.14928436	-27.72501945	1.0
[RightHandThumb4]
302	-19.54599953	-11.28499985	11.28499985	0	0	0	1.0
303	-19.54599953	-11.28499985	11.28499985	0	0	0	1.0
304	-19.54599953	-11.28499985	11.28499985	0	0	0	1.0
305	-19.54599953	-11.28499985	11.28499985	0	0	0	1.0
[LeftUpLeg]
302	82.07800293	-67.51699829	-15.99599934	-28.93832207	14.16722202	15.51135635	1.0
303	82.07800293	-67.51699829	-15.99599934	-28.53085327	19.85317421	9.704942703	1.0
304	82.07800293	-67.51699829	-15.99599934	-28.39487267	22.29280281	4.633842468	1.0
305	82.07800293	-67.51699829	-15.99599934	-28.10179329	19.65655136	1.109413743	1.0
[LeftLeg]
302	0	-443.7049866	2.845999956	44.73028946	0.9700030088	-1.732347846	1.0
303	0	-443.7049866	2.845999956	41.78496933	0.4980986416	-2.07420969	1.0
304	0	-443.7049866	2.845999956	37.3488884	1.526792407	-1.089195371	1.0
305	0	-443.7049866	2.845999956	33.70015717	4.403205395	1.26765275	1.0
[LeftFoot]
302	0	-444.2789917	-29.8219986	25.92014885	-6.519875526	-24.50335312	1.0
303	0	-444.2789917	-29.8219986	24.06746292	-7.912230015	-23.15630913	1.0
304	0	-444.2789917	-29.8219986	14.61676693	-7.182823181	-15.06958294	1.0
305	0	-444.2789917	-29.8219986	-0.05907547474	-1.355094194	-4.402390003	1.0
[LeftToeBase]
302	0	-87.28699493	107.1060028	-7.060433865	-0.1051763073	-0.4209921956	1.0
303	0	-87.28699493	107.1060028	-14.93017578	1.122139096	4.473758698	1.0
304	0	-87.28699493	107.1060028	-17.02224922	1.271019816	5.193449974	1.0
305	0	-87.28699493	107.1060028	-10.93353844	0.168573007	0.902310431	1.0
[RightUpLeg]
302	-82.07800293	-67.51699829	-15.99599934	-8.442537308	-19.22284889	4.522194862	1.0
303	-82.07800293	-67.51699829	-15.99599934	-14.31850624	-18.42193985	2.217878819	1.0
304	-82.07800293	-67.51699829	-15.99599934	-21.03334236	-16.0235939	-1.399093628	1.0
305	-82.07800293	-67.51699829	-15.99599934	-26.03820038	-12.87324619	-5.413154125	1.0
[RightLeg]
302	0	-443.7049866	2.861999989	26.46991348	-1.498940825	1.192182899	1.0
303	0	-443.7049866	2.861999989	34.64935684	2.09207201	5.44973135	1.0
304	0	-443.7049866	2.861999989	45.88946152	3.509077311	8.918750763	1.0
305	0	-443.7049866	2.861999989	55.2558136	1.548862696	8.228610992	1.0
[RightFoot]
302	0	-444.2770081	-29.83799934	-12.22000313	-10.49957275	-2.310683727	1.0
303	0	-444.2770081	-29.83799934	-3.272299767	-5.196655273	16.3816967	1.0
304	0	-444.2770081	-29.83799934	-0.606462419	-1.678450584	28.85385895	1.0
305	0	-444.2770081	-29.83799934	-5.78754282	-1.264761686	27.09885597	1.0
[RightToeBase]
302	0	-87.28699493	107.1060028	-16.29339218	0.1880306005	0.628077805	1.0
303	0	-87.28699493	107.1060028	-22.60572243	-2.044923782	-6.830339909	1.0
304	0	-87.28699493	107.1060028	-18.55583	-2.044919729	-6.830347538	1.0
305	0	-87.28699493	107.1060028	-7.254683495	0.1880404502	0.6280624866	1.0
[EndOfFile]
